<?xml version="1.0" standalone="no"?>
<svg viewBox="0 0 200 200" xmlns="http://www.w3.org/2000/svg">
  <path fill="#F1C21B" d="M31.8,-55.7C41.1,-49.7,48.5,-41,56.4,-31.2C64.3,-21.5,72.8,-10.7,75,1.3C77.3,13.3,73.3,26.6,66.2,37.9C59.2,49.2,49.1,58.4,37.6,63.4C26.1,68.4,13,69.2,0.3,68.7C-12.5,68.3,-25,66.6,-35,60.7C-44.9,54.8,-52.4,44.7,-62.7,33.8C-72.9,23,-86.1,11.5,-86,0C-86,-11.5,-72.8,-23,-63.6,-35.7C-54.5,-48.4,-49.3,-62.4,-39.3,-68C-29.4,-73.7,-14.7,-70.9,-1.7,-67.9C11.2,-64.9,22.5,-61.7,31.8,-55.7Z" transform="translate(100 100)" />
</svg>
